<svg xmlns="http://www.w3.org/2000/svg" xmlns:xlink="http://www.w3.org/1999/xlink" width="500" zoomAndPan="magnify" viewBox="0 0 375 374.999991" height="500" preserveAspectRatio="xMidYMid meet" version="1.0"><defs><g/><clipPath id="047de17d4d"><path d="M 148 65.496094 L 325 65.496094 L 325 117 L 148 117 Z M 148 65.496094 " clip-rule="nonzero"/></clipPath><clipPath id="e7fd3c565f"><path d="M 50 153 L 227 153 L 227 204.996094 L 50 204.996094 Z M 50 153 " clip-rule="nonzero"/></clipPath></defs><path fill="#000000" d="M 146.410156 114.8125 C 147.90625 114.8125 149.117188 116.023438 149.117188 117.519531 C 149.117188 119.015625 147.90625 120.226562 146.410156 120.226562 C 144.914062 120.226562 143.703125 119.015625 143.703125 117.519531 C 143.703125 116.023438 144.914062 114.8125 146.410156 114.8125 Z M 325.433594 166.40625 C 326.929688 166.40625 328.140625 167.617188 328.140625 169.113281 C 328.140625 170.609375 326.929688 171.824219 325.433594 171.824219 C 323.9375 171.824219 322.726562 170.609375 322.726562 169.113281 C 322.726562 167.617188 323.9375 166.40625 325.433594 166.40625 Z M 165.179688 193.285156 C 163.683594 193.285156 162.46875 192.074219 162.46875 190.574219 C 162.46875 189.078125 163.683594 187.867188 165.179688 187.867188 C 166.675781 187.867188 167.886719 189.078125 167.886719 190.574219 C 167.886719 192.074219 166.675781 193.285156 165.179688 193.285156 Z M 146.410156 121.765625 C 148.367188 121.765625 150.011719 120.441406 150.503906 118.644531 L 214.976562 118.644531 L 264.324219 167.992188 L 248.933594 167.992188 L 227.472656 189.453125 L 169.273438 189.453125 C 168.78125 187.652344 167.132812 186.332031 165.179688 186.332031 C 162.835938 186.332031 160.933594 188.234375 160.933594 190.574219 C 160.933594 192.917969 162.835938 194.820312 165.179688 194.820312 C 167.058594 194.820312 168.648438 193.597656 169.207031 191.90625 L 228.484375 191.90625 L 249.949219 170.445312 L 321.402344 170.445312 C 321.960938 172.136719 323.554688 173.355469 325.433594 173.355469 C 327.777344 173.355469 329.675781 171.457031 329.675781 169.113281 C 329.675781 166.769531 327.777344 164.867188 325.433594 164.867188 C 323.476562 164.867188 321.832031 166.191406 321.339844 167.992188 L 267.792969 167.992188 L 215.992188 116.191406 L 150.441406 116.191406 C 149.882812 114.496094 148.289062 113.277344 146.410156 113.277344 C 144.066406 113.277344 142.167969 115.175781 142.167969 117.519531 C 142.167969 119.863281 144.066406 121.765625 146.410156 121.765625 " fill-opacity="1" fill-rule="nonzero"/><path fill="#000000" d="M 248.878906 103.394531 L 178.230469 103.394531 C 177.308594 100.128906 174.308594 97.734375 170.75 97.734375 C 166.457031 97.734375 162.980469 101.214844 162.980469 105.507812 C 162.980469 109.796875 166.457031 113.277344 170.75 113.277344 C 174.054688 113.277344 176.878906 111.210938 178 108.300781 L 246.847656 108.300781 L 267.160156 128.617188 L 359.839844 128.617188 C 360.960938 131.527344 363.785156 133.59375 367.089844 133.59375 C 371.382812 133.59375 374.863281 130.113281 374.863281 125.820312 C 374.863281 121.53125 371.382812 118.050781 367.089844 118.050781 C 363.53125 118.050781 360.53125 120.445312 359.613281 123.710938 L 269.195312 123.710938 L 248.878906 103.394531 " fill-opacity="1" fill-rule="nonzero"/><g clip-path="url(#047de17d4d)"><path fill="#000000" d="M 152.695312 67.039062 C 154.191406 67.039062 155.402344 68.25 155.402344 69.746094 C 155.402344 71.242188 154.191406 72.453125 152.695312 72.453125 C 151.199219 72.453125 149.984375 71.242188 149.984375 69.746094 C 149.984375 68.25 151.199219 67.039062 152.695312 67.039062 Z M 319.9375 109.769531 C 321.433594 109.769531 322.648438 110.980469 322.648438 112.480469 C 322.648438 113.976562 321.433594 115.1875 319.9375 115.1875 C 318.445312 115.1875 317.226562 113.976562 317.226562 112.480469 C 317.226562 110.980469 318.445312 109.769531 319.9375 109.769531 Z M 192.910156 93.945312 C 191.414062 93.945312 190.203125 92.730469 190.203125 91.238281 C 190.203125 89.738281 191.414062 88.527344 192.910156 88.527344 C 194.40625 88.527344 195.617188 89.738281 195.617188 91.238281 C 195.617188 92.730469 194.40625 93.945312 192.910156 93.945312 Z M 152.695312 73.992188 C 154.648438 73.992188 156.292969 72.667969 156.785156 70.871094 L 214.984375 70.871094 L 234.023438 89.90625 L 196.941406 89.90625 C 196.382812 88.210938 194.789062 86.992188 192.910156 86.992188 C 190.566406 86.992188 188.667969 88.890625 188.667969 91.238281 C 188.667969 93.578125 190.566406 95.476562 192.910156 95.476562 C 194.867188 95.476562 196.511719 94.15625 197.003906 92.359375 L 255.203125 92.359375 L 276.664062 113.820312 L 315.910156 113.820312 C 316.472656 115.507812 318.066406 116.722656 319.9375 116.722656 C 322.28125 116.722656 324.183594 114.820312 324.183594 112.480469 C 324.183594 110.136719 322.28125 108.234375 319.9375 108.234375 C 317.976562 108.234375 316.332031 109.5625 315.84375 111.367188 L 277.683594 111.367188 L 256.21875 89.90625 L 255.214844 89.90625 L 255.210938 89.878906 L 237.464844 89.878906 L 216 68.414062 L 156.722656 68.414062 C 156.164062 66.726562 154.574219 65.503906 152.695312 65.503906 C 150.351562 65.503906 148.449219 67.402344 148.449219 69.746094 C 148.449219 72.089844 150.351562 73.992188 152.695312 73.992188 " fill-opacity="1" fill-rule="nonzero"/></g><path fill="#000000" d="M 297.078125 147.257812 L 267.113281 147.257812 L 248.917969 129.066406 L 230.601562 129.066406 L 233.054688 131.515625 L 247.902344 131.515625 L 266.097656 149.710938 L 297.117188 149.710938 C 297.664062 151.421875 299.269531 152.660156 301.164062 152.660156 C 303.507812 152.660156 305.40625 150.761719 305.40625 148.417969 C 305.40625 146.074219 303.507812 144.175781 301.164062 144.175781 C 299.21875 144.175781 297.585938 145.476562 297.078125 147.257812 " fill-opacity="1" fill-rule="nonzero"/><path fill="#000000" d="M 226.117188 131.515625 L 223.664062 129.066406 L 173.046875 129.066406 C 172.542969 127.285156 170.90625 125.980469 168.96875 125.980469 C 166.625 125.980469 164.722656 127.882812 164.722656 130.226562 C 164.722656 132.566406 166.625 134.46875 168.96875 134.46875 C 170.859375 134.46875 172.460938 133.230469 173.007812 131.515625 L 226.117188 131.515625 " fill-opacity="1" fill-rule="nonzero"/><path fill="#000000" d="M 228.589844 155.65625 C 227.09375 155.65625 225.878906 154.445312 225.878906 152.949219 C 225.878906 151.453125 227.09375 150.238281 228.589844 150.238281 C 230.085938 150.238281 231.296875 151.453125 231.296875 152.949219 C 231.296875 154.445312 230.085938 155.65625 228.589844 155.65625 Z M 49.566406 104.0625 C 48.070312 104.0625 46.855469 102.851562 46.855469 101.355469 C 46.855469 99.859375 48.070312 98.644531 49.566406 98.644531 C 51.0625 98.644531 52.273438 99.859375 52.273438 101.355469 C 52.273438 102.851562 51.0625 104.0625 49.566406 104.0625 Z M 209.820312 77.183594 C 211.316406 77.183594 212.527344 78.394531 212.527344 79.894531 C 212.527344 81.386719 211.316406 82.601562 209.820312 82.601562 C 208.324219 82.601562 207.113281 81.386719 207.113281 79.894531 C 207.113281 78.394531 208.324219 77.183594 209.820312 77.183594 Z M 228.589844 148.707031 C 226.632812 148.707031 224.988281 150.027344 224.496094 151.824219 L 160.023438 151.824219 L 110.675781 102.476562 L 126.066406 102.476562 L 147.527344 81.015625 L 205.726562 81.015625 C 206.21875 82.8125 207.867188 84.136719 209.820312 84.136719 C 212.164062 84.136719 214.0625 82.238281 214.0625 79.894531 C 214.0625 77.550781 212.164062 75.648438 209.820312 75.648438 C 207.941406 75.648438 206.347656 76.871094 205.789062 78.5625 L 146.511719 78.5625 L 125.050781 100.023438 L 53.59375 100.023438 C 53.039062 98.332031 51.445312 97.109375 49.566406 97.109375 C 47.222656 97.109375 45.320312 99.011719 45.320312 101.355469 C 45.320312 103.699219 47.222656 105.597656 49.566406 105.597656 C 51.519531 105.597656 53.167969 104.277344 53.660156 102.476562 L 107.207031 102.476562 L 159.007812 154.277344 L 224.558594 154.277344 C 225.117188 155.972656 226.710938 157.191406 228.589844 157.191406 C 230.933594 157.191406 232.832031 155.292969 232.832031 152.949219 C 232.832031 150.605469 230.933594 148.707031 228.589844 148.707031 " fill-opacity="1" fill-rule="nonzero"/><path fill="#000000" d="M 126.121094 167.074219 L 196.769531 167.074219 C 197.691406 170.339844 200.6875 172.734375 204.25 172.734375 C 208.542969 172.734375 212.019531 169.253906 212.019531 164.960938 C 212.019531 160.667969 208.542969 157.191406 204.25 157.191406 C 200.945312 157.191406 198.121094 159.253906 196.996094 162.167969 L 128.152344 162.167969 L 107.839844 141.851562 L 15.160156 141.851562 C 14.035156 138.941406 11.214844 136.875 7.910156 136.875 C 3.617188 136.875 0.136719 140.351562 0.136719 144.648438 C 0.136719 148.9375 3.617188 152.417969 7.910156 152.417969 C 11.46875 152.417969 14.46875 150.023438 15.386719 146.757812 L 105.804688 146.757812 L 126.121094 167.074219 " fill-opacity="1" fill-rule="nonzero"/><g clip-path="url(#e7fd3c565f)"><path fill="#000000" d="M 222.304688 203.429688 C 220.808594 203.429688 219.597656 202.21875 219.597656 200.71875 C 219.597656 199.226562 220.808594 198.011719 222.304688 198.011719 C 223.800781 198.011719 225.015625 199.226562 225.015625 200.71875 C 225.015625 202.21875 223.800781 203.429688 222.304688 203.429688 Z M 55.0625 160.699219 C 53.566406 160.699219 52.351562 159.484375 52.351562 157.988281 C 52.351562 156.496094 53.566406 155.28125 55.0625 155.28125 C 56.558594 155.28125 57.769531 156.496094 57.769531 157.988281 C 57.769531 159.484375 56.558594 160.699219 55.0625 160.699219 Z M 182.089844 176.523438 C 183.585938 176.523438 184.796875 177.734375 184.796875 179.234375 C 184.796875 180.726562 183.585938 181.941406 182.089844 181.941406 C 180.59375 181.941406 179.378906 180.726562 179.378906 179.234375 C 179.378906 177.734375 180.59375 176.523438 182.089844 176.523438 Z M 222.304688 196.476562 C 220.351562 196.476562 218.707031 197.800781 218.214844 199.597656 L 160.015625 199.597656 L 140.976562 180.5625 L 178.058594 180.5625 C 178.617188 182.253906 180.210938 183.476562 182.089844 183.476562 C 184.433594 183.476562 186.332031 181.578125 186.332031 179.234375 C 186.332031 176.886719 184.433594 174.988281 182.089844 174.988281 C 180.132812 174.988281 178.488281 176.3125 177.996094 178.109375 L 119.796875 178.109375 L 98.335938 156.648438 L 59.089844 156.648438 C 58.527344 154.960938 56.9375 153.746094 55.0625 153.746094 C 52.71875 153.746094 50.820312 155.644531 50.820312 157.988281 C 50.820312 160.332031 52.71875 162.234375 55.0625 162.234375 C 57.019531 162.234375 58.667969 160.90625 59.15625 159.101562 L 97.320312 159.101562 L 118.78125 180.5625 L 119.785156 180.5625 L 119.789062 180.589844 L 137.535156 180.589844 L 158.996094 202.050781 L 218.277344 202.050781 C 218.835938 203.742188 220.425781 204.964844 222.304688 204.964844 C 224.648438 204.964844 226.550781 203.0625 226.550781 200.71875 C 226.550781 198.378906 224.648438 196.476562 222.304688 196.476562 " fill-opacity="1" fill-rule="nonzero"/></g><path fill="#000000" d="M 77.917969 123.210938 L 107.886719 123.210938 L 126.082031 141.402344 L 144.398438 141.402344 L 141.945312 138.949219 L 127.097656 138.949219 L 108.902344 120.757812 L 77.878906 120.757812 C 77.332031 119.046875 75.730469 117.808594 73.835938 117.808594 C 71.492188 117.808594 69.59375 119.707031 69.59375 122.046875 C 69.59375 124.394531 71.492188 126.292969 73.835938 126.292969 C 75.777344 126.292969 77.414062 124.988281 77.917969 123.210938 " fill-opacity="1" fill-rule="nonzero"/><path fill="#000000" d="M 148.882812 138.949219 L 151.335938 141.402344 L 201.953125 141.402344 C 202.457031 143.183594 204.09375 144.488281 206.03125 144.488281 C 208.378906 144.488281 210.277344 142.585938 210.277344 140.242188 C 210.277344 137.898438 208.378906 136 206.03125 136 C 204.140625 136 202.539062 137.238281 201.992188 138.949219 L 148.882812 138.949219 " fill-opacity="1" fill-rule="nonzero"/><g fill="#000000" fill-opacity="1"><g transform="translate(93.808915, 249.068655)"><g><path d="M 10.71875 3.359375 C 9.53125 3.359375 8.539062 3.070312 7.75 2.5 C 6.96875 1.925781 6.445312 1.128906 6.1875 0.109375 C 5.15625 -0.0351562 4.253906 -0.382812 3.484375 -0.9375 C 2.722656 -1.488281 2.128906 -2.25 1.703125 -3.21875 C 1.273438 -4.1875 1.0625 -5.363281 1.0625 -6.75 C 1.0625 -8.289062 1.328125 -9.578125 1.859375 -10.609375 C 2.398438 -11.648438 3.140625 -12.421875 4.078125 -12.921875 C 5.023438 -13.421875 6.113281 -13.671875 7.34375 -13.671875 C 8.582031 -13.671875 9.671875 -13.421875 10.609375 -12.921875 C 11.554688 -12.421875 12.296875 -11.648438 12.828125 -10.609375 C 13.359375 -9.578125 13.625 -8.289062 13.625 -6.75 C 13.625 -4.726562 13.191406 -3.175781 12.328125 -2.09375 C 11.460938 -1.019531 10.25 -0.347656 8.6875 -0.078125 L 8.640625 0.09375 C 8.828125 0.425781 9.109375 0.675781 9.484375 0.84375 C 9.867188 1.019531 10.3125 1.109375 10.8125 1.109375 C 11.21875 1.109375 11.585938 1.054688 11.921875 0.953125 L 12.109375 1 L 12.484375 3.078125 C 12.285156 3.148438 12.019531 3.210938 11.6875 3.265625 C 11.351562 3.328125 11.03125 3.359375 10.71875 3.359375 Z M 7.34375 -2.125 C 8.488281 -2.125 9.363281 -2.488281 9.96875 -3.21875 C 10.570312 -3.957031 10.875 -5.132812 10.875 -6.75 C 10.875 -8.351562 10.570312 -9.523438 9.96875 -10.265625 C 9.363281 -11.003906 8.488281 -11.375 7.34375 -11.375 C 6.195312 -11.375 5.320312 -11.003906 4.71875 -10.265625 C 4.113281 -9.523438 3.8125 -8.351562 3.8125 -6.75 C 3.8125 -5.132812 4.113281 -3.957031 4.71875 -3.21875 C 5.320312 -2.488281 6.195312 -2.125 7.34375 -2.125 Z M 7.34375 -2.125 "/></g></g></g><g fill="#000000" fill-opacity="1"><g transform="translate(113.09389, 249.068655)"><g><path d="M 7.15625 0.1875 C 5.289062 0.1875 3.910156 -0.25 3.015625 -1.125 C 2.117188 -2.007812 1.671875 -3.320312 1.671875 -5.0625 L 1.671875 -13.484375 L 4.28125 -13.484375 L 4.28125 -5.078125 C 4.28125 -4.085938 4.515625 -3.347656 4.984375 -2.859375 C 5.460938 -2.367188 6.1875 -2.125 7.15625 -2.125 C 9.0625 -2.125 10.015625 -3.109375 10.015625 -5.078125 L 10.015625 -13.484375 L 12.625 -13.484375 L 12.625 -5.0625 C 12.625 -3.320312 12.175781 -2.007812 11.28125 -1.125 C 10.382812 -0.25 9.007812 0.1875 7.15625 0.1875 Z M 7.15625 0.1875 "/></g></g></g><g fill="#000000" fill-opacity="1"><g transform="translate(131.982235, 249.068655)"><g><path d="M 12.9375 0 L 10.140625 0 L 9.125 -3.109375 L 3.953125 -3.109375 L 2.9375 0 L 0.203125 0 L 4.859375 -13.484375 L 8.28125 -13.484375 Z M 6.40625 -10.671875 L 4.671875 -5.34375 L 8.390625 -5.34375 L 6.640625 -10.671875 Z M 6.40625 -10.671875 "/></g></g></g><g fill="#000000" fill-opacity="1"><g transform="translate(149.717587, 249.068655)"><g><path d="M 4.328125 0 L 1.75 0 L 1.75 -13.484375 L 4.8125 -13.484375 L 10.21875 -4.796875 L 10.453125 -4.828125 L 10.453125 -13.484375 L 13.03125 -13.484375 L 13.03125 0 L 10.296875 0 L 4.5625 -9.28125 L 4.328125 -9.25 Z M 4.328125 0 "/></g></g></g><g fill="#000000" fill-opacity="1"><g transform="translate(169.104026, 249.068655)"><g><path d="M 10.8125 -13.484375 L 10.8125 -11.25 L 6.921875 -11.25 L 6.921875 0 L 4.265625 0 L 4.265625 -11.25 L 0.375 -11.25 L 0.375 -13.484375 Z M 10.8125 -13.484375 "/></g></g></g><g fill="#000000" fill-opacity="1"><g transform="translate(184.874681, 249.068655)"><g><path d="M 12.9375 0 L 10.140625 0 L 9.125 -3.109375 L 3.953125 -3.109375 L 2.9375 0 L 0.203125 0 L 4.859375 -13.484375 L 8.28125 -13.484375 Z M 6.40625 -10.671875 L 4.671875 -5.34375 L 8.390625 -5.34375 L 6.640625 -10.671875 Z M 6.40625 -10.671875 "/></g></g></g><g fill="#000000" fill-opacity="1"><g transform="translate(202.61003, 249.068655)"><g><path d="M 8.015625 0 L 4.796875 0 L 0.234375 -13.484375 L 3.078125 -13.484375 L 6.34375 -3.4375 L 6.578125 -3.4375 L 9.8125 -13.484375 L 12.5625 -13.484375 Z M 8.015625 0 "/></g></g></g><g fill="#000000" fill-opacity="1"><g transform="translate(220.004098, 249.068655)"><g><path d="M 4.421875 -5.921875 L 4.421875 -2.234375 L 10.859375 -2.234375 L 10.859375 0 L 1.75 0 L 1.75 -13.484375 L 10.703125 -13.484375 L 10.703125 -11.25 L 4.421875 -11.25 L 4.421875 -8.09375 L 9.921875 -8.09375 L 9.921875 -5.921875 Z M 4.421875 -5.921875 "/></g></g></g><g fill="#000000" fill-opacity="1"><g transform="translate(236.189831, 249.068655)"><g><path d="M 1.75 0 L 1.75 -13.484375 L 7.171875 -13.484375 C 8.566406 -13.484375 9.617188 -13.160156 10.328125 -12.515625 C 11.035156 -11.878906 11.390625 -10.992188 11.390625 -9.859375 C 11.390625 -9.046875 11.179688 -8.375 10.765625 -7.84375 C 10.347656 -7.320312 9.726562 -6.925781 8.90625 -6.65625 L 8.90625 -6.453125 C 9.332031 -6.273438 9.675781 -6.003906 9.9375 -5.640625 C 10.195312 -5.273438 10.445312 -4.734375 10.6875 -4.015625 L 12.03125 0 L 9.28125 0 L 7.96875 -4.03125 C 7.832031 -4.4375 7.679688 -4.75 7.515625 -4.96875 C 7.347656 -5.195312 7.128906 -5.363281 6.859375 -5.46875 C 6.597656 -5.570312 6.257812 -5.625 5.84375 -5.625 L 4.421875 -5.625 L 4.421875 0 Z M 6.84375 -7.734375 C 8.132812 -7.734375 8.78125 -8.332031 8.78125 -9.53125 C 8.78125 -10.757812 8.132812 -11.375 6.84375 -11.375 L 4.421875 -11.375 L 4.421875 -7.734375 Z M 6.84375 -7.734375 "/></g></g></g><g fill="#000000" fill-opacity="1"><g transform="translate(253.390197, 249.068655)"><g><path d="M 5.984375 0.1875 C 5.046875 0.1875 4.210938 0.0703125 3.484375 -0.15625 C 2.753906 -0.382812 2.144531 -0.6875 1.65625 -1.0625 C 1.175781 -1.4375 0.804688 -1.847656 0.546875 -2.296875 L 2.015625 -4.09375 L 2.234375 -4.09375 C 2.640625 -3.488281 3.15625 -3.003906 3.78125 -2.640625 C 4.40625 -2.285156 5.140625 -2.109375 5.984375 -2.109375 C 6.691406 -2.109375 7.226562 -2.257812 7.59375 -2.5625 C 7.957031 -2.863281 8.140625 -3.28125 8.140625 -3.8125 C 8.140625 -4.132812 8.078125 -4.398438 7.953125 -4.609375 C 7.835938 -4.828125 7.644531 -5.007812 7.375 -5.15625 C 7.101562 -5.3125 6.738281 -5.445312 6.28125 -5.5625 L 4.546875 -5.953125 C 3.335938 -6.234375 2.4375 -6.691406 1.84375 -7.328125 C 1.25 -7.972656 0.953125 -8.8125 0.953125 -9.84375 C 0.953125 -10.601562 1.140625 -11.269531 1.515625 -11.84375 C 1.898438 -12.425781 2.457031 -12.875 3.1875 -13.1875 C 3.914062 -13.507812 4.785156 -13.671875 5.796875 -13.671875 C 6.835938 -13.671875 7.726562 -13.535156 8.46875 -13.265625 C 9.207031 -12.992188 9.832031 -12.578125 10.34375 -12.015625 L 9.03125 -10.203125 L 8.796875 -10.203125 C 8.421875 -10.597656 7.984375 -10.894531 7.484375 -11.09375 C 6.992188 -11.300781 6.429688 -11.40625 5.796875 -11.40625 C 5.066406 -11.40625 4.507812 -11.273438 4.125 -11.015625 C 3.75 -10.753906 3.5625 -10.394531 3.5625 -9.9375 C 3.5625 -9.519531 3.691406 -9.179688 3.953125 -8.921875 C 4.222656 -8.671875 4.6875 -8.476562 5.34375 -8.34375 L 7.125 -7.96875 C 8.425781 -7.6875 9.375 -7.21875 9.96875 -6.5625 C 10.5625 -5.90625 10.859375 -5.039062 10.859375 -3.96875 C 10.859375 -3.132812 10.675781 -2.40625 10.3125 -1.78125 C 9.945312 -1.15625 9.398438 -0.671875 8.671875 -0.328125 C 7.941406 0.015625 7.046875 0.1875 5.984375 0.1875 Z M 5.984375 0.1875 "/></g></g></g><g fill="#000000" fill-opacity="1"><g transform="translate(269.566706, 249.068655)"><g><path d="M 4.421875 -5.921875 L 4.421875 -2.234375 L 10.859375 -2.234375 L 10.859375 0 L 1.75 0 L 1.75 -13.484375 L 10.703125 -13.484375 L 10.703125 -11.25 L 4.421875 -11.25 L 4.421875 -8.09375 L 9.921875 -8.09375 L 9.921875 -5.921875 Z M 4.421875 -5.921875 "/></g></g></g><g fill="#000000" fill-opacity="1"><g transform="translate(139.32193, 268.916145)"><g><path d="M 10.359375 0 L 8.109375 0 L 7.296875 -2.484375 L 3.171875 -2.484375 L 2.359375 0 L 0.15625 0 L 3.890625 -10.796875 L 6.625 -10.796875 Z M 5.125 -8.546875 L 3.75 -4.28125 L 6.71875 -4.28125 L 5.3125 -8.546875 Z M 5.125 -8.546875 "/></g></g></g><g fill="#000000" fill-opacity="1"><g transform="translate(155.196862, 268.916145)"><g><path d="M 5.90625 0.15625 C 4.90625 0.15625 4.023438 -0.046875 3.265625 -0.453125 C 2.515625 -0.867188 1.921875 -1.492188 1.484375 -2.328125 C 1.054688 -3.160156 0.84375 -4.1875 0.84375 -5.40625 C 0.84375 -6.613281 1.054688 -7.632812 1.484375 -8.46875 C 1.921875 -9.300781 2.515625 -9.921875 3.265625 -10.328125 C 4.023438 -10.742188 4.90625 -10.953125 5.90625 -10.953125 C 6.9375 -10.953125 7.816406 -10.75 8.546875 -10.34375 C 9.273438 -9.9375 9.796875 -9.316406 10.109375 -8.484375 L 8.546875 -7.53125 L 8.359375 -7.546875 C 8.128906 -8.097656 7.816406 -8.492188 7.421875 -8.734375 C 7.023438 -8.984375 6.519531 -9.109375 5.90625 -9.109375 C 5.007812 -9.109375 4.304688 -8.8125 3.796875 -8.21875 C 3.296875 -7.625 3.046875 -6.6875 3.046875 -5.40625 C 3.046875 -4.113281 3.296875 -3.171875 3.796875 -2.578125 C 4.304688 -1.984375 5.007812 -1.6875 5.90625 -1.6875 C 7.300781 -1.6875 8.160156 -2.367188 8.484375 -3.734375 L 8.65625 -3.734375 L 10.234375 -2.921875 C 9.941406 -1.890625 9.4375 -1.117188 8.71875 -0.609375 C 8.007812 -0.0976562 7.070312 0.15625 5.90625 0.15625 Z M 5.90625 0.15625 "/></g></g></g><g fill="#000000" fill-opacity="1"><g transform="translate(171.138228, 268.916145)"><g><path d="M 10.359375 0 L 8.109375 0 L 7.296875 -2.484375 L 3.171875 -2.484375 L 2.359375 0 L 0.15625 0 L 3.890625 -10.796875 L 6.625 -10.796875 Z M 5.125 -8.546875 L 3.75 -4.28125 L 6.71875 -4.28125 L 5.3125 -8.546875 Z M 5.125 -8.546875 "/></g></g></g><g fill="#000000" fill-opacity="1"><g transform="translate(187.013159, 268.916145)"><g><path d="M 5.28125 -10.796875 C 7.039062 -10.796875 8.378906 -10.34375 9.296875 -9.4375 C 10.222656 -8.53125 10.6875 -7.1875 10.6875 -5.40625 C 10.6875 -3.613281 10.222656 -2.265625 9.296875 -1.359375 C 8.378906 -0.453125 7.039062 0 5.28125 0 L 1.40625 0 L 1.40625 -10.796875 Z M 5.15625 -1.796875 C 6.269531 -1.796875 7.101562 -2.078125 7.65625 -2.640625 C 8.207031 -3.210938 8.484375 -4.132812 8.484375 -5.40625 C 8.484375 -6.664062 8.207031 -7.578125 7.65625 -8.140625 C 7.101562 -8.710938 6.269531 -9 5.15625 -9 L 3.53125 -9 L 3.53125 -1.796875 Z M 5.15625 -1.796875 "/></g></g></g><g fill="#000000" fill-opacity="1"><g transform="translate(203.89935, 268.916145)"><g><path d="M 3.53125 -4.734375 L 3.53125 -1.78125 L 8.6875 -1.78125 L 8.6875 0 L 1.40625 0 L 1.40625 -10.796875 L 8.578125 -10.796875 L 8.578125 -9.015625 L 3.53125 -9.015625 L 3.53125 -6.484375 L 7.9375 -6.484375 L 7.9375 -4.734375 Z M 3.53125 -4.734375 "/></g></g></g><g fill="#000000" fill-opacity="1"><g transform="translate(218.534203, 268.916145)"><g><path d="M 3.359375 0 L 1.40625 0 L 1.40625 -10.796875 L 4.1875 -10.796875 L 6.921875 -2.859375 L 7.078125 -2.859375 L 9.796875 -10.796875 L 12.53125 -10.796875 L 12.53125 0 L 10.5 0 L 10.5 -7.140625 L 10.3125 -7.15625 L 7.828125 0 L 6.046875 0 L 3.546875 -7.15625 L 3.359375 -7.140625 Z M 3.359375 0 "/></g></g></g><g fill="#000000" fill-opacity="1"><g transform="translate(237.826737, 268.916145)"><g><path d="M 5.921875 0 L 3.78125 0 L 3.78125 -4.234375 L 0.046875 -10.796875 L 2.34375 -10.796875 L 4.8125 -6.546875 L 5 -6.546875 L 7.40625 -10.796875 L 9.640625 -10.796875 L 5.921875 -4.234375 Z M 5.921875 0 "/></g></g></g></svg>