<?xml version="1.0" standalone="no"?>
<!DOCTYPE svg PUBLIC "-//W3C//DTD SVG 20010904//EN"
 "http://www.w3.org/TR/2001/REC-SVG-20010904/DTD/svg10.dtd">
<svg version="1.0" xmlns="http://www.w3.org/2000/svg"
 width="500.000000pt" height="500.000000pt" viewBox="0 0 500.000000 500.000000"
 preserveAspectRatio="xMidYMid meet">

<g transform="translate(0.000000,500.000000) scale(0.100000,-0.100000)"
fill="#000000" stroke="none">
<path d="M2776 4085 c-13 -34 -7 -45 27 -45 29 0 33 3 32 28 0 22 -5 28 -26
30 -17 2 -29 -3 -33 -13z"/>
<path d="M2754 3786 c-3 -8 -4 -31 -2 -52 l3 -39 53 -3 52 -3 0 55 0 56 -50 0
c-34 0 -52 -5 -56 -14z"/>
<path d="M2396 3581 c-20 -59 -36 -115 -36 -124 0 -9 12 -18 30 -22 17 -4 30
-10 30 -14 0 -5 -92 -281 -204 -615 -196 -586 -202 -608 -182 -615 127 -48
429 -141 435 -135 5 5 97 275 205 599 109 325 202 595 208 602 7 8 17 9 35 2
15 -5 29 -6 33 -2 10 10 83 233 79 237 -5 4 -583 196 -590 196 -3 0 -23 -49
-43 -109z m321 -65 c112 -37 205 -71 208 -75 2 -5 -3 -26 -11 -49 l-16 -40
-116 39 c-64 21 -119 39 -123 39 -11 0 -30 -63 -22 -71 5 -3 37 -16 73 -28 36
-12 71 -25 79 -30 11 -7 -22 -116 -174 -572 -103 -310 -191 -568 -195 -573
-11 -11 -300 85 -300 101 0 13 10 44 254 772 80 239 146 438 146 442 0 4 -13
10 -30 14 -17 4 -30 13 -30 21 0 29 30 86 42 82 7 -3 104 -35 215 -72z"/>
<path d="M2446 3005 c-3 -9 -6 -22 -5 -28 0 -7 5 -1 10 12 5 13 8 26 5 28 -2
2 -6 -3 -10 -12z"/>
<path d="M2483 3013 c9 -2 25 -2 35 0 9 3 1 5 -18 5 -19 0 -27 -2 -17 -5z"/>
<path d="M2412 2911 c-17 -47 -15 -62 3 -27 9 17 14 37 12 45 -1 9 -8 2 -15
-18z"/>
<path d="M2586 2875 c-9 -26 -7 -32 5 -12 6 10 9 21 6 23 -2 3 -7 -2 -11 -11z"/>
<path d="M2341 2674 c0 -11 3 -14 6 -6 3 7 2 16 -1 19 -3 4 -6 -2 -5 -13z"/>
<path d="M2506 2645 c-3 -9 -6 -24 -5 -33 0 -9 5 -4 10 12 9 32 6 48 -5 21z"/>
<path d="M2481 2572 c-1 -10 -23 -13 -95 -10 l-94 3 -40 -115 c-22 -63 -43
-122 -46 -131 -6 -14 9 -22 84 -47 l91 -31 10 27 c37 94 99 295 95 305 -3 8
-5 8 -5 -1z"/>
<path d="M1551 3019 c-143 -145 -261 -268 -261 -274 0 -5 117 -127 260 -270
l259 -259 26 24 c14 13 25 28 25 34 0 6 -105 116 -232 243 l-233 233 238 238
238 238 -30 28 -29 27 -261 -262z"/>
<path d="M3172 3257 c-12 -13 -22 -27 -22 -33 0 -5 105 -114 232 -241 l233
-233 -233 -233 c-127 -127 -232 -237 -232 -243 0 -6 11 -21 25 -34 l26 -24
267 267 267 267 -265 265 c-146 146 -267 265 -271 265 -3 0 -15 -10 -27 -23z"/>
<path d="M2198 1658 c-2 -47 -7 -63 -18 -64 -8 -1 -70 -2 -137 -3 l-123 -1 0
-175 0 -175 180 0 180 0 1 43 c5 131 6 405 2 420 -3 12 -15 17 -43 17 l-39 0
-3 -62z m2 -243 l0 -106 -97 3 -98 3 -3 89 c-2 49 -1 95 2 103 4 9 31 13 101
13 l95 0 0 -105z"/>
<path d="M2900 1475 l0 -246 43 3 42 3 0 240 0 240 -42 3 -43 3 0 -246z"/>
<path d="M3590 1475 l0 -245 185 0 185 0 0 185 0 184 -137 3 -138 3 -3 58 -3
57 -44 0 -45 0 0 -245z m288 -38 c6 -118 7 -117 -103 -117 l-95 0 0 95 0 96
98 -3 97 -3 3 -68z"/>
<path d="M937 1594 c-4 -4 -7 -85 -7 -181 l0 -173 186 0 185 0 -3 38 -3 37
-128 2 c-71 1 -135 4 -143 7 -12 5 -14 24 -12 98 l3 93 140 5 140 5 0 35 0 35
-176 3 c-96 1 -178 -1 -182 -4z"/>
<path d="M2418 1594 c-5 -4 -8 -85 -8 -181 l0 -173 180 0 c171 0 180 1 180 19
0 11 3 26 6 35 5 13 -13 16 -138 18 l-143 3 0 35 0 35 140 3 140 3 0 101 0
102 -175 4 c-96 2 -178 1 -182 -4z m280 -97 c6 -48 -10 -56 -104 -51 -47 2
-89 6 -95 9 -11 7 -12 58 -2 69 4 4 50 5 103 4 l95 -3 3 -28z"/>
<path d="M3100 1560 l0 -40 140 0 140 0 0 -35 0 -35 -140 0 -140 0 0 -110 0
-110 185 0 185 0 0 185 0 185 -185 0 -185 0 0 -40z m280 -215 l0 -36 -92 3
c-80 3 -93 5 -96 21 -8 42 3 47 98 47 l90 0 0 -35z"/>
<path d="M1424 1574 c3 -9 6 -87 6 -175 l0 -159 180 0 180 0 0 175 0 175 -186
0 c-166 0 -185 -2 -180 -16z m281 -159 l0 -100 -95 0 -95 0 -3 103 -3 103 98
-3 98 -3 0 -100z"/>
<path d="M930 1000 c0 -33 4 -60 10 -60 6 0 10 11 10 25 0 23 4 25 40 25 36 0
40 -2 40 -25 0 -14 5 -25 10 -25 6 0 10 27 10 60 l0 60 -60 0 -60 0 0 -60z
m100 25 c0 -11 -11 -15 -40 -15 -29 0 -40 4 -40 15 0 11 11 15 40 15 29 0 40
-4 40 -15z"/>
<path d="M1090 1000 c0 -33 3 -60 7 -60 4 0 17 10 30 22 l23 21 23 -21 c13
-12 26 -22 30 -22 4 0 7 28 7 62 0 63 -8 76 -12 20 -2 -31 -20 -43 -33 -22 -4
6 -16 4 -31 -6 l-24 -16 0 41 c0 22 -4 41 -10 41 -6 0 -10 -27 -10 -60z"/>
<path d="M1257 1053 c-4 -3 -7 -30 -7 -60 l0 -53 65 0 c37 0 65 4 65 10 0 6
-22 10 -50 10 -38 0 -50 4 -50 15 0 11 12 15 50 15 28 0 50 5 50 10 0 6 -22
10 -50 10 -38 0 -50 4 -50 15 0 11 12 15 50 15 28 0 50 5 50 10 0 11 -113 14
-123 3z"/>
<path d="M1420 1025 l0 -35 50 0 c38 0 50 -4 50 -15 0 -11 -12 -15 -50 -15
-27 0 -50 -4 -50 -10 0 -6 27 -10 60 -10 l60 0 0 35 0 35 -50 0 c-38 0 -50 4
-50 15 0 11 12 15 50 15 28 0 50 5 50 10 0 6 -27 10 -60 10 l-60 0 0 -35z"/>
<path d="M1580 1000 l0 -60 65 0 66 0 -3 58 -3 57 -62 3 -63 3 0 -61z m108 -2
l3 -38 -45 0 -46 0 0 41 0 40 43 -3 c41 -3 42 -4 45 -40z"/>
<path d="M1750 1000 c0 -33 4 -60 10 -60 6 0 10 16 10 35 0 37 8 43 28 23 9
-9 15 -9 24 0 20 20 28 14 28 -23 0 -19 5 -35 10 -35 6 0 10 27 10 60 0 33 -3
60 -7 60 -4 0 -17 -10 -30 -22 l-23 -21 -23 21 c-13 12 -26 22 -30 22 -4 0 -7
-27 -7 -60z"/>
<path d="M1910 1000 l0 -60 60 0 c33 0 60 4 60 10 0 6 -23 10 -51 10 -66 0
-62 24 4 28 63 4 60 22 -3 22 -38 0 -50 4 -50 15 0 11 12 15 50 15 28 0 50 5
50 10 0 6 -27 10 -60 10 l-60 0 0 -60z"/>
<path d="M2170 1050 c0 -5 11 -10 25 -10 23 0 25 -3 25 -50 0 -27 5 -50 10
-50 6 0 10 23 10 50 0 47 2 50 25 50 14 0 25 5 25 10 0 6 -27 10 -60 10 -33 0
-60 -4 -60 -10z"/>
<path d="M2320 1000 c0 -58 15 -84 22 -37 3 19 9 22 43 22 34 0 40 -3 43 -22
7 -47 22 -21 22 37 l0 60 -65 0 -65 0 0 -60z m105 25 c0 -5 -19 -11 -42 -13
-40 -3 -53 5 -36 22 11 10 78 3 78 -9z"/>
<path d="M2490 1000 l0 -60 60 0 60 0 0 35 c0 32 -2 35 -30 35 -16 0 -30 -4
-30 -10 0 -5 9 -10 20 -10 11 0 20 -7 20 -15 0 -11 -11 -15 -40 -15 l-40 0 0
40 0 40 50 0 c28 0 50 5 50 10 0 6 -27 10 -60 10 l-60 0 0 -60z"/>
<path d="M2650 1000 l0 -60 51 0 c31 0 48 4 44 10 -3 6 -22 10 -41 10 l-34 0
0 50 c0 28 -4 50 -10 50 -6 0 -10 -27 -10 -60z"/>
<path d="M2790 1051 c0 -5 9 -11 20 -14 15 -4 20 -14 20 -41 0 -29 -4 -36 -20
-36 -11 0 -20 -4 -20 -10 0 -5 23 -10 50 -10 28 0 50 5 50 10 0 6 -9 10 -20
10 -17 0 -20 7 -20 40 0 33 3 40 20 40 11 0 20 5 20 10 0 6 -22 10 -50 10 -27
0 -50 -4 -50 -9z"/>
<path d="M2930 1000 c0 -33 4 -60 10 -60 6 0 10 16 10 35 0 19 4 35 8 35 4 0
23 -16 42 -35 19 -19 38 -35 42 -35 4 0 8 27 8 60 0 33 -4 60 -10 60 -5 0 -10
-19 -10 -42 l-1 -43 -38 43 c-21 23 -44 42 -50 42 -7 0 -11 -23 -11 -60z"/>
<path d="M3090 1000 l0 -60 60 0 c33 0 60 4 60 10 0 6 -23 10 -51 10 -66 0
-62 24 4 28 63 4 60 22 -3 22 -38 0 -50 4 -50 15 0 11 12 15 50 15 28 0 50 5
50 10 0 6 -27 10 -60 10 l-60 0 0 -60z"/>
<path d="M3350 1000 c0 -33 4 -60 10 -60 6 0 10 11 10 25 0 23 4 25 40 25 36
0 40 -2 40 -25 0 -14 5 -25 10 -25 6 0 10 27 10 60 0 33 -4 60 -10 60 -5 0
-10 -11 -10 -25 0 -22 -4 -25 -40 -25 -36 0 -40 3 -40 25 0 14 -4 25 -10 25
-6 0 -10 -27 -10 -60z"/>
<path d="M3510 1000 l0 -60 66 0 c41 0 63 4 59 10 -3 6 -29 10 -56 10 -62 0
-64 23 -3 28 65 5 73 16 15 22 -76 7 -81 30 -6 30 35 0 54 4 50 10 -3 6 -33
10 -66 10 l-59 0 0 -60z"/>
<path d="M3681 998 c0 -54 2 -59 11 -35 12 34 28 34 68 1 33 -28 53 -26 29 2
-11 13 -11 18 -1 21 6 3 12 20 12 39 l0 34 -60 0 -60 0 1 -62z m99 27 c0 -11
-11 -15 -40 -15 -29 0 -40 4 -40 15 0 11 11 15 40 15 29 0 40 -4 40 -15z"/>
<path d="M3840 1000 l0 -60 60 0 c33 0 60 4 60 10 0 6 -22 10 -50 10 -38 0
-50 4 -50 15 0 11 12 15 50 15 28 0 50 5 50 10 0 6 -22 10 -50 10 -38 0 -50 4
-50 15 0 11 12 15 50 15 28 0 50 5 50 10 0 6 -27 10 -60 10 l-60 0 0 -60z"/>
</g>
</svg>
